<svg width="392" height="84" viewBox="0 0 392 84" fill="none" xmlns="http://www.w3.org/2000/svg">
<path d="M38.4064 34.9497L45.4567 42L16.4567 71L0 54.5427L7.04963 47.4925L16.4567 56.8995L38.4064 34.9497ZM45.4567 20.0503L38.4064 13L16.4567 34.9497L7.04963 25.5427L0 32.593L16.4567 49.0503L45.4567 20.0503Z" fill="#FEFEFE"/>
<path d="M74.1172 58.5273H96.5117V67H63.5703V15.8125H74.1172V58.5273ZM112.648 67H102.453V28.9609H112.648V67ZM101.855 19.1172C101.855 17.5938 102.359 16.3398 103.367 15.3555C104.398 14.3711 105.793 13.8789 107.551 13.8789C109.285 13.8789 110.668 14.3711 111.699 15.3555C112.73 16.3398 113.246 17.5938 113.246 19.1172C113.246 20.6641 112.719 21.9297 111.664 22.9141C110.633 23.8984 109.262 24.3906 107.551 24.3906C105.84 24.3906 104.457 23.8984 103.402 22.9141C102.371 21.9297 101.855 20.6641 101.855 19.1172ZM130.402 28.9609L130.719 33.3555C133.438 29.957 137.082 28.2578 141.652 28.2578C145.684 28.2578 148.684 29.4414 150.652 31.8086C152.621 34.1758 153.629 37.7148 153.676 42.4258V67H143.516V42.6719C143.516 40.5156 143.047 38.957 142.109 37.9961C141.172 37.0117 139.613 36.5195 137.434 36.5195C134.574 36.5195 132.43 37.7383 131 40.1758V67H120.84V28.9609H130.402ZM159.934 47.6992C159.934 41.8633 161.316 37.1641 164.082 33.6016C166.871 30.0391 170.621 28.2578 175.332 28.2578C179.504 28.2578 182.75 29.6875 185.07 32.5469L185.492 28.9609H194.703V65.7344C194.703 69.0625 193.941 71.957 192.418 74.418C190.918 76.8789 188.797 78.7539 186.055 80.043C183.312 81.332 180.102 81.9766 176.422 81.9766C173.633 81.9766 170.914 81.4141 168.266 80.2891C165.617 79.1875 163.613 77.7578 162.254 76L166.754 69.8125C169.285 72.6484 172.355 74.0664 175.965 74.0664C178.66 74.0664 180.758 73.3398 182.258 71.8867C183.758 70.457 184.508 68.418 184.508 65.7695V63.7305C182.164 66.3789 179.082 67.7031 175.262 67.7031C170.691 67.7031 166.988 65.9219 164.152 62.3594C161.34 58.7734 159.934 54.0273 159.934 48.1211V47.6992ZM170.094 48.4375C170.094 51.8828 170.785 54.5898 172.168 56.5586C173.551 58.5039 175.449 59.4766 177.863 59.4766C180.957 59.4766 183.172 58.3164 184.508 55.9961V40C183.148 37.6797 180.957 36.5195 177.934 36.5195C175.496 36.5195 173.574 37.5156 172.168 39.5078C170.785 41.5 170.094 44.4766 170.094 48.4375ZM200.961 47.6289C200.961 43.8555 201.688 40.4922 203.141 37.5391C204.594 34.5859 206.68 32.3008 209.398 30.6836C212.141 29.0664 215.316 28.2578 218.926 28.2578C224.059 28.2578 228.242 29.8281 231.477 32.9688C234.734 36.1094 236.551 40.375 236.926 45.7656L236.996 48.3672C236.996 54.2031 235.367 58.8906 232.109 62.4297C228.852 65.9453 224.48 67.7031 218.996 67.7031C213.512 67.7031 209.129 65.9453 205.848 62.4297C202.59 58.9141 200.961 54.1328 200.961 48.0859V47.6289ZM211.121 48.3672C211.121 51.9766 211.801 54.7422 213.16 56.6641C214.52 58.5625 216.465 59.5117 218.996 59.5117C221.457 59.5117 223.379 58.5742 224.762 56.6992C226.145 54.8008 226.836 51.7773 226.836 47.6289C226.836 44.0898 226.145 41.3477 224.762 39.4023C223.379 37.457 221.434 36.4844 218.926 36.4844C216.441 36.4844 214.52 37.457 213.16 39.4023C211.801 41.3242 211.121 44.3125 211.121 48.3672ZM284.105 49.9492C283.707 55.457 281.668 59.793 277.988 62.957C274.332 66.1211 269.504 67.7031 263.504 67.7031C256.941 67.7031 251.773 65.5 248 61.0938C244.25 56.6641 242.375 50.5938 242.375 42.8828V39.7539C242.375 34.832 243.242 30.4961 244.977 26.7461C246.711 22.9961 249.184 20.125 252.395 18.1328C255.629 16.1172 259.379 15.1094 263.645 15.1094C269.551 15.1094 274.309 16.6914 277.918 19.8555C281.527 23.0195 283.613 27.4609 284.176 33.1797H273.629C273.371 29.875 272.445 27.4844 270.852 26.0078C269.281 24.5078 266.879 23.7578 263.645 23.7578C260.129 23.7578 257.492 25.0234 255.734 27.5547C254 30.0625 253.109 33.9648 253.062 39.2617V43.1289C253.062 48.6602 253.895 52.7031 255.559 55.2578C257.246 57.8125 259.895 59.0898 263.504 59.0898C266.762 59.0898 269.188 58.3516 270.781 56.875C272.398 55.375 273.324 53.0664 273.559 49.9492H284.105ZM312.406 67C311.938 66.0859 311.598 64.9492 311.387 63.5898C308.926 66.332 305.727 67.7031 301.789 67.7031C298.062 67.7031 294.969 66.625 292.508 64.4688C290.07 62.3125 288.852 59.5938 288.852 56.3125C288.852 52.2812 290.34 49.1875 293.316 47.0312C296.316 44.875 300.641 43.7852 306.289 43.7617H310.965V41.582C310.965 39.8242 310.508 38.418 309.594 37.3633C308.703 36.3086 307.285 35.7812 305.34 35.7812C303.629 35.7812 302.281 36.1914 301.297 37.0117C300.336 37.832 299.855 38.957 299.855 40.3867H289.695C289.695 38.1836 290.375 36.1445 291.734 34.2695C293.094 32.3945 295.016 30.9297 297.5 29.875C299.984 28.7969 302.773 28.2578 305.867 28.2578C310.555 28.2578 314.27 29.4414 317.012 31.8086C319.777 34.1523 321.16 37.457 321.16 41.7227V58.2109C321.184 61.8203 321.688 64.5508 322.672 66.4023V67H312.406ZM304.004 59.9336C305.504 59.9336 306.887 59.6055 308.152 58.9492C309.418 58.2695 310.355 57.3672 310.965 56.2422V49.7031H307.168C302.082 49.7031 299.375 51.4609 299.047 54.9766L299.012 55.5742C299.012 56.8398 299.457 57.8828 300.348 58.7031C301.238 59.5234 302.457 59.9336 304.004 59.9336ZM350.34 38.4883C348.957 38.3008 347.738 38.207 346.684 38.207C342.84 38.207 340.32 39.5078 339.125 42.1094V67H328.965V28.9609H338.562L338.844 33.4961C340.883 30.0039 343.707 28.2578 347.316 28.2578C348.441 28.2578 349.496 28.4102 350.48 28.7148L350.34 38.4883ZM352.977 47.6992C352.977 41.7695 354.301 37.0469 356.949 33.5312C359.621 30.0156 363.266 28.2578 367.883 28.2578C371.586 28.2578 374.645 29.6406 377.059 32.4062V13H387.254V67H378.078L377.586 62.957C375.055 66.1211 371.797 67.7031 367.812 67.7031C363.336 67.7031 359.738 65.9453 357.02 62.4297C354.324 58.8906 352.977 53.9805 352.977 47.6992ZM363.137 48.4375C363.137 52 363.758 54.7305 365 56.6289C366.242 58.5273 368.047 59.4766 370.414 59.4766C373.555 59.4766 375.77 58.1523 377.059 55.5039V40.4922C375.793 37.8438 373.602 36.5195 370.484 36.5195C365.586 36.5195 363.137 40.4922 363.137 48.4375Z" fill="#FBFBFC"/>
</svg>
